<svg xmlns="http://www.w3.org/2000/svg" width="220" height="208" viewBox="0 0 220 208" fill="none">
<path d="M110 0V85V166.5V207.5L4.61279 161.75V45.25L110 0Z" fill="#080710"/>
<path d="M39.5 31L73.708 45.25V73.75L39.5 88L5.292 73.75V45.25L39.5 31Z" fill="white"/>
<path d="M39.5 119L73.708 133.25V161.75L39.5 176L5.292 161L5.29199 133.25L39.5 119Z" fill="white"/>
<path d="M74.5 75L108.708 89.25V117.75L74.5 132L40.292 117.75V89.25L74.5 75Z" fill="white"/>
<path d="M94.5 7.5L108.708 1.5V29.75L74.5 44L40.5 30.5L60 22.5L94.5 7.5Z" fill="white"/>
<path d="M5 75L5 91.5V116L5 132L39.208 117.75V89.25L5 75Z" fill="white"/>
<path d="M108.5 119V135.5V159.5V176L75 161.75V133.25L108.5 119Z" fill="white"/>
<path d="M108.5 31V47.5V71.5V88L75 73.75V45.25L108.5 31Z" fill="white"/>
<path d="M74.5 163L108.708 177.25V206L85.5 196L54 182.5L40.292 176.5L74.5 163Z" fill="white"/>
<path d="M110 0V85V166.5V207.5L215.387 161.75V45.25L110 0Z" fill="white"/>
<path d="M180.5 31L146.292 45.25V73.75L180.5 88L214.708 73.75V45.25L180.5 31Z" fill="#080710"/>
<path d="M180.5 119L146.292 133.25V161.75L180.5 176L214.708 161L214.708 133.25L180.5 119Z" fill="#080710"/>
<path d="M145.5 75L111.292 89.25V117.75L145.5 132L179.708 117.75V89.25L145.5 75Z" fill="#080710"/>
<path d="M125.5 7.5L111.292 1.5V29.75L145.5 44L179.5 30.5L160 22.5L125.5 7.5Z" fill="#080710"/>
<path d="M215 75L215 91.5V116L215 132L180.792 117.75V89.25L215 75Z" fill="#080710"/>
<path d="M111.5 119V135.5V159.5V176L145 161.75V133.25L111.5 119Z" fill="#080710"/>
<path d="M111.5 31V47.5V71.5V88L145 73.75V45.25L111.5 31Z" fill="#080710"/>
<path d="M145.5 163L111.292 177.25V206L134.5 196L166 182.5L179.708 176.5L145.5 163Z" fill="#080710"/>
</svg>
